<mxfile host="app.diagrams.net" agent="Mozilla/5.0 (Windows NT 10.0; Win64; x64) AppleWebKit/537.36 (KHTML, like Gecko) Chrome/130.0.0.0 Safari/537.36" version="24.7.17">
  <diagram name="Page-1" id="MFeL1DQLidzh6BzauCXo">
    <mxGraphModel dx="2206" dy="1188" grid="1" gridSize="10" guides="1" tooltips="1" connect="1" arrows="1" fold="1" page="1" pageScale="1" pageWidth="827" pageHeight="1169" math="0" shadow="0">
      <root>
        <mxCell id="0" />
        <mxCell id="1" parent="0" />
        <mxCell id="m8fVVzXEGq7GW8oS4KQ8-3" value="" style="edgeStyle=orthogonalEdgeStyle;rounded=0;orthogonalLoop=1;jettySize=auto;html=1;" edge="1" parent="1" source="m8fVVzXEGq7GW8oS4KQ8-1" target="m8fVVzXEGq7GW8oS4KQ8-2">
          <mxGeometry relative="1" as="geometry" />
        </mxCell>
        <mxCell id="m8fVVzXEGq7GW8oS4KQ8-1" value="start" style="ellipse;whiteSpace=wrap;html=1;" vertex="1" parent="1">
          <mxGeometry x="354" y="30" width="120" height="80" as="geometry" />
        </mxCell>
        <mxCell id="m8fVVzXEGq7GW8oS4KQ8-22" style="edgeStyle=orthogonalEdgeStyle;rounded=0;orthogonalLoop=1;jettySize=auto;html=1;entryX=0.5;entryY=0;entryDx=0;entryDy=0;" edge="1" parent="1" source="m8fVVzXEGq7GW8oS4KQ8-2" target="m8fVVzXEGq7GW8oS4KQ8-6">
          <mxGeometry relative="1" as="geometry" />
        </mxCell>
        <mxCell id="m8fVVzXEGq7GW8oS4KQ8-2" value="const long long limit&amp;nbsp;&lt;div&gt;= 10000000000000&lt;/div&gt;&lt;div&gt;long long h[4]&lt;/div&gt;&lt;div&gt;long long d[4]&lt;/div&gt;" style="shape=trapezoid;perimeter=trapezoidPerimeter;whiteSpace=wrap;html=1;fixedSize=1;" vertex="1" parent="1">
          <mxGeometry x="308.5" y="150" width="211" height="90" as="geometry" />
        </mxCell>
        <mxCell id="m8fVVzXEGq7GW8oS4KQ8-16" value="" style="edgeStyle=orthogonalEdgeStyle;rounded=0;orthogonalLoop=1;jettySize=auto;html=1;" edge="1" parent="1" source="m8fVVzXEGq7GW8oS4KQ8-6" target="m8fVVzXEGq7GW8oS4KQ8-15">
          <mxGeometry relative="1" as="geometry" />
        </mxCell>
        <mxCell id="m8fVVzXEGq7GW8oS4KQ8-6" value="for (int i =0; i &amp;lt;4&lt;div&gt;cin h[i]&lt;/div&gt;" style="rhombus;whiteSpace=wrap;html=1;" vertex="1" parent="1">
          <mxGeometry x="60" y="280" width="196" height="80" as="geometry" />
        </mxCell>
        <mxCell id="m8fVVzXEGq7GW8oS4KQ8-34" value="" style="edgeStyle=orthogonalEdgeStyle;rounded=0;orthogonalLoop=1;jettySize=auto;html=1;" edge="1" parent="1" source="m8fVVzXEGq7GW8oS4KQ8-9" target="m8fVVzXEGq7GW8oS4KQ8-33">
          <mxGeometry relative="1" as="geometry" />
        </mxCell>
        <mxCell id="m8fVVzXEGq7GW8oS4KQ8-9" value="for (int i =0; i &amp;lt;4&lt;div&gt;cin d[i]&lt;/div&gt;" style="rhombus;whiteSpace=wrap;html=1;" vertex="1" parent="1">
          <mxGeometry x="500" y="280" width="196" height="80" as="geometry" />
        </mxCell>
        <mxCell id="m8fVVzXEGq7GW8oS4KQ8-21" value="" style="edgeStyle=orthogonalEdgeStyle;rounded=0;orthogonalLoop=1;jettySize=auto;html=1;entryX=0;entryY=0.5;entryDx=0;entryDy=0;" edge="1" parent="1" source="m8fVVzXEGq7GW8oS4KQ8-15" target="m8fVVzXEGq7GW8oS4KQ8-9">
          <mxGeometry relative="1" as="geometry">
            <mxPoint x="294" y="554" as="targetPoint" />
          </mxGeometry>
        </mxCell>
        <mxCell id="m8fVVzXEGq7GW8oS4KQ8-26" value="FALSE" style="edgeLabel;html=1;align=center;verticalAlign=middle;resizable=0;points=[];" vertex="1" connectable="0" parent="m8fVVzXEGq7GW8oS4KQ8-21">
          <mxGeometry x="-0.4305" y="2" relative="1" as="geometry">
            <mxPoint x="-52" y="2" as="offset" />
          </mxGeometry>
        </mxCell>
        <mxCell id="m8fVVzXEGq7GW8oS4KQ8-31" style="edgeStyle=orthogonalEdgeStyle;rounded=0;orthogonalLoop=1;jettySize=auto;html=1;entryX=0.75;entryY=0;entryDx=0;entryDy=0;" edge="1" parent="1">
          <mxGeometry relative="1" as="geometry">
            <mxPoint x="413" y="650" as="targetPoint" />
            <mxPoint x="189" y="500" as="sourcePoint" />
          </mxGeometry>
        </mxCell>
        <mxCell id="m8fVVzXEGq7GW8oS4KQ8-111" value="TRUE" style="edgeLabel;html=1;align=center;verticalAlign=middle;resizable=0;points=[];" vertex="1" connectable="0" parent="m8fVVzXEGq7GW8oS4KQ8-31">
          <mxGeometry x="-0.5294" y="2" relative="1" as="geometry">
            <mxPoint x="13" y="5" as="offset" />
          </mxGeometry>
        </mxCell>
        <mxCell id="m8fVVzXEGq7GW8oS4KQ8-15" value="if(h[i] &amp;lt; 0 || h[i] &amp;gt; limit)" style="whiteSpace=wrap;html=1;" vertex="1" parent="1">
          <mxGeometry x="98" y="443" width="120" height="60" as="geometry" />
        </mxCell>
        <mxCell id="m8fVVzXEGq7GW8oS4KQ8-27" value="END" style="rounded=1;whiteSpace=wrap;html=1;" vertex="1" parent="1">
          <mxGeometry x="354" y="650" width="120" height="60" as="geometry" />
        </mxCell>
        <mxCell id="m8fVVzXEGq7GW8oS4KQ8-35" style="edgeStyle=orthogonalEdgeStyle;rounded=0;orthogonalLoop=1;jettySize=auto;html=1;entryX=0.5;entryY=0;entryDx=0;entryDy=0;" edge="1" parent="1" source="m8fVVzXEGq7GW8oS4KQ8-33" target="m8fVVzXEGq7GW8oS4KQ8-27">
          <mxGeometry relative="1" as="geometry">
            <Array as="points">
              <mxPoint x="414" y="500" />
            </Array>
          </mxGeometry>
        </mxCell>
        <mxCell id="m8fVVzXEGq7GW8oS4KQ8-36" value="TRUE" style="edgeLabel;html=1;align=center;verticalAlign=middle;resizable=0;points=[];" vertex="1" connectable="0" parent="m8fVVzXEGq7GW8oS4KQ8-35">
          <mxGeometry x="-0.4489" y="1" relative="1" as="geometry">
            <mxPoint x="18" y="2" as="offset" />
          </mxGeometry>
        </mxCell>
        <mxCell id="m8fVVzXEGq7GW8oS4KQ8-39" value="" style="edgeStyle=orthogonalEdgeStyle;rounded=0;orthogonalLoop=1;jettySize=auto;html=1;" edge="1" parent="1" source="m8fVVzXEGq7GW8oS4KQ8-33" target="m8fVVzXEGq7GW8oS4KQ8-38">
          <mxGeometry relative="1" as="geometry" />
        </mxCell>
        <mxCell id="m8fVVzXEGq7GW8oS4KQ8-33" value="if(d[i] &lt; 0 || d[i] &gt; limit)" style="whiteSpace=wrap;html=1;" vertex="1" parent="1">
          <mxGeometry x="538" y="443" width="120" height="60" as="geometry" />
        </mxCell>
        <mxCell id="m8fVVzXEGq7GW8oS4KQ8-41" value="" style="edgeStyle=orthogonalEdgeStyle;rounded=0;orthogonalLoop=1;jettySize=auto;html=1;" edge="1" parent="1" source="m8fVVzXEGq7GW8oS4KQ8-38" target="m8fVVzXEGq7GW8oS4KQ8-40">
          <mxGeometry relative="1" as="geometry" />
        </mxCell>
        <mxCell id="m8fVVzXEGq7GW8oS4KQ8-38" value="bool error_occurred = false;&amp;nbsp;&lt;div&gt;bool table_tipped = false;&lt;/div&gt;" style="shape=trapezoid;perimeter=trapezoidPerimeter;whiteSpace=wrap;html=1;fixedSize=1;" vertex="1" parent="1">
          <mxGeometry x="750" y="434.5" width="180" height="77" as="geometry" />
        </mxCell>
        <mxCell id="m8fVVzXEGq7GW8oS4KQ8-43" value="" style="edgeStyle=orthogonalEdgeStyle;rounded=0;orthogonalLoop=1;jettySize=auto;html=1;" edge="1" parent="1" source="m8fVVzXEGq7GW8oS4KQ8-40" target="m8fVVzXEGq7GW8oS4KQ8-42">
          <mxGeometry relative="1" as="geometry" />
        </mxCell>
        <mxCell id="m8fVVzXEGq7GW8oS4KQ8-40" value="for (int i = 0; i &lt; 4; i++)" style="rhombus;whiteSpace=wrap;html=1;" vertex="1" parent="1">
          <mxGeometry x="745" y="560" width="190" height="80" as="geometry" />
        </mxCell>
        <mxCell id="m8fVVzXEGq7GW8oS4KQ8-47" value="" style="edgeStyle=orthogonalEdgeStyle;rounded=0;orthogonalLoop=1;jettySize=auto;html=1;" edge="1" parent="1" source="m8fVVzXEGq7GW8oS4KQ8-42" target="m8fVVzXEGq7GW8oS4KQ8-46">
          <mxGeometry relative="1" as="geometry" />
        </mxCell>
        <mxCell id="m8fVVzXEGq7GW8oS4KQ8-48" value="TRUE" style="edgeLabel;html=1;align=center;verticalAlign=middle;resizable=0;points=[];" vertex="1" connectable="0" parent="m8fVVzXEGq7GW8oS4KQ8-47">
          <mxGeometry x="-0.1389" y="-3" relative="1" as="geometry">
            <mxPoint as="offset" />
          </mxGeometry>
        </mxCell>
        <mxCell id="m8fVVzXEGq7GW8oS4KQ8-50" value="" style="edgeStyle=orthogonalEdgeStyle;rounded=0;orthogonalLoop=1;jettySize=auto;html=1;" edge="1" parent="1" source="m8fVVzXEGq7GW8oS4KQ8-42" target="m8fVVzXEGq7GW8oS4KQ8-49">
          <mxGeometry relative="1" as="geometry" />
        </mxCell>
        <mxCell id="m8fVVzXEGq7GW8oS4KQ8-51" value="FALSE" style="edgeLabel;html=1;align=center;verticalAlign=middle;resizable=0;points=[];" vertex="1" connectable="0" parent="m8fVVzXEGq7GW8oS4KQ8-50">
          <mxGeometry x="-0.4537" y="1" relative="1" as="geometry">
            <mxPoint x="13" as="offset" />
          </mxGeometry>
        </mxCell>
        <mxCell id="m8fVVzXEGq7GW8oS4KQ8-42" value="if (h[i] &lt; d[i])" style="shape=hexagon;perimeter=hexagonPerimeter2;whiteSpace=wrap;html=1;fixedSize=1;" vertex="1" parent="1">
          <mxGeometry x="780" y="720" width="120" height="80" as="geometry" />
        </mxCell>
        <mxCell id="m8fVVzXEGq7GW8oS4KQ8-63" style="edgeStyle=orthogonalEdgeStyle;rounded=0;orthogonalLoop=1;jettySize=auto;html=1;entryX=0.25;entryY=0;entryDx=0;entryDy=0;" edge="1" parent="1">
          <mxGeometry relative="1" as="geometry">
            <mxPoint x="597.0033333333333" y="790" as="sourcePoint" />
            <mxPoint x="827.47" y="870" as="targetPoint" />
            <Array as="points">
              <mxPoint x="597.47" y="840" />
              <mxPoint x="827.47" y="840" />
            </Array>
          </mxGeometry>
        </mxCell>
        <mxCell id="m8fVVzXEGq7GW8oS4KQ8-46" value="error_occurred = true;" style="whiteSpace=wrap;html=1;" vertex="1" parent="1">
          <mxGeometry x="519.5" y="730" width="120" height="60" as="geometry" />
        </mxCell>
        <mxCell id="m8fVVzXEGq7GW8oS4KQ8-62" style="edgeStyle=orthogonalEdgeStyle;rounded=0;orthogonalLoop=1;jettySize=auto;html=1;entryX=1;entryY=0;entryDx=0;entryDy=0;" edge="1" parent="1">
          <mxGeometry relative="1" as="geometry">
            <mxPoint x="1060" y="790" as="sourcePoint" />
            <mxPoint x="860" y="870" as="targetPoint" />
            <Array as="points">
              <mxPoint x="1060" y="840" />
              <mxPoint x="860" y="840" />
            </Array>
          </mxGeometry>
        </mxCell>
        <mxCell id="m8fVVzXEGq7GW8oS4KQ8-49" value="h[i] -= d[i];" style="whiteSpace=wrap;html=1;" vertex="1" parent="1">
          <mxGeometry x="1040" y="730" width="120" height="60" as="geometry" />
        </mxCell>
        <mxCell id="m8fVVzXEGq7GW8oS4KQ8-66" value="" style="edgeStyle=orthogonalEdgeStyle;rounded=0;orthogonalLoop=1;jettySize=auto;html=1;" edge="1" parent="1" source="m8fVVzXEGq7GW8oS4KQ8-52" target="m8fVVzXEGq7GW8oS4KQ8-65">
          <mxGeometry relative="1" as="geometry" />
        </mxCell>
        <mxCell id="m8fVVzXEGq7GW8oS4KQ8-52" value="long long&amp;nbsp;&lt;div&gt;max_h = h[0],&lt;div&gt;&amp;nbsp;min_h = h[0]&lt;/div&gt;&lt;/div&gt;" style="shape=parallelogram;perimeter=parallelogramPerimeter;whiteSpace=wrap;html=1;fixedSize=1;" vertex="1" parent="1">
          <mxGeometry x="780" y="870" width="120" height="50" as="geometry" />
        </mxCell>
        <mxCell id="m8fVVzXEGq7GW8oS4KQ8-69" value="" style="edgeStyle=orthogonalEdgeStyle;rounded=0;orthogonalLoop=1;jettySize=auto;html=1;" edge="1" parent="1" source="m8fVVzXEGq7GW8oS4KQ8-65" target="m8fVVzXEGq7GW8oS4KQ8-68">
          <mxGeometry relative="1" as="geometry" />
        </mxCell>
        <mxCell id="m8fVVzXEGq7GW8oS4KQ8-72" value="" style="edgeStyle=orthogonalEdgeStyle;rounded=0;orthogonalLoop=1;jettySize=auto;html=1;" edge="1" parent="1" source="m8fVVzXEGq7GW8oS4KQ8-65" target="m8fVVzXEGq7GW8oS4KQ8-71">
          <mxGeometry relative="1" as="geometry" />
        </mxCell>
        <mxCell id="m8fVVzXEGq7GW8oS4KQ8-65" value="for (int j = 1; j &amp;lt; 4; j++)" style="rhombus;whiteSpace=wrap;html=1;" vertex="1" parent="1">
          <mxGeometry x="765" y="960" width="150" height="90" as="geometry" />
        </mxCell>
        <mxCell id="m8fVVzXEGq7GW8oS4KQ8-74" value="" style="edgeStyle=orthogonalEdgeStyle;rounded=0;orthogonalLoop=1;jettySize=auto;html=1;" edge="1" parent="1" source="m8fVVzXEGq7GW8oS4KQ8-68" target="m8fVVzXEGq7GW8oS4KQ8-73">
          <mxGeometry relative="1" as="geometry" />
        </mxCell>
        <mxCell id="m8fVVzXEGq7GW8oS4KQ8-68" value="if(max_h &amp;lt; h[j])" style="shape=hexagon;perimeter=hexagonPerimeter2;whiteSpace=wrap;html=1;fixedSize=1;" vertex="1" parent="1">
          <mxGeometry x="660" y="1100" width="90" height="50" as="geometry" />
        </mxCell>
        <mxCell id="m8fVVzXEGq7GW8oS4KQ8-76" value="" style="edgeStyle=orthogonalEdgeStyle;rounded=0;orthogonalLoop=1;jettySize=auto;html=1;" edge="1" parent="1" source="m8fVVzXEGq7GW8oS4KQ8-71" target="m8fVVzXEGq7GW8oS4KQ8-75">
          <mxGeometry relative="1" as="geometry" />
        </mxCell>
        <mxCell id="m8fVVzXEGq7GW8oS4KQ8-71" value="if(min_h &amp;gt; h[j])" style="shape=hexagon;perimeter=hexagonPerimeter2;whiteSpace=wrap;html=1;fixedSize=1;" vertex="1" parent="1">
          <mxGeometry x="930" y="1095" width="85" height="55" as="geometry" />
        </mxCell>
        <mxCell id="m8fVVzXEGq7GW8oS4KQ8-80" style="edgeStyle=orthogonalEdgeStyle;rounded=0;orthogonalLoop=1;jettySize=auto;html=1;entryX=0.375;entryY=0;entryDx=0;entryDy=0;" edge="1" parent="1" source="m8fVVzXEGq7GW8oS4KQ8-73" target="m8fVVzXEGq7GW8oS4KQ8-78">
          <mxGeometry relative="1" as="geometry" />
        </mxCell>
        <mxCell id="m8fVVzXEGq7GW8oS4KQ8-73" value="max_h = h[j];" style="whiteSpace=wrap;html=1;" vertex="1" parent="1">
          <mxGeometry x="667.5" y="1190" width="75" height="25" as="geometry" />
        </mxCell>
        <mxCell id="m8fVVzXEGq7GW8oS4KQ8-79" style="edgeStyle=orthogonalEdgeStyle;rounded=0;orthogonalLoop=1;jettySize=auto;html=1;entryX=0.625;entryY=0;entryDx=0;entryDy=0;" edge="1" parent="1" source="m8fVVzXEGq7GW8oS4KQ8-75" target="m8fVVzXEGq7GW8oS4KQ8-78">
          <mxGeometry relative="1" as="geometry" />
        </mxCell>
        <mxCell id="m8fVVzXEGq7GW8oS4KQ8-75" value="min_h = h[j];" style="whiteSpace=wrap;html=1;" vertex="1" parent="1">
          <mxGeometry x="931.4" y="1190" width="83.6" height="28.75" as="geometry" />
        </mxCell>
        <mxCell id="m8fVVzXEGq7GW8oS4KQ8-82" value="" style="edgeStyle=orthogonalEdgeStyle;rounded=0;orthogonalLoop=1;jettySize=auto;html=1;" edge="1" parent="1" source="m8fVVzXEGq7GW8oS4KQ8-78" target="m8fVVzXEGq7GW8oS4KQ8-81">
          <mxGeometry relative="1" as="geometry" />
        </mxCell>
        <mxCell id="m8fVVzXEGq7GW8oS4KQ8-87" value="TRUE" style="edgeLabel;html=1;align=center;verticalAlign=middle;resizable=0;points=[];" vertex="1" connectable="0" parent="m8fVVzXEGq7GW8oS4KQ8-82">
          <mxGeometry x="-0.2" y="-4" relative="1" as="geometry">
            <mxPoint x="-7" y="-4" as="offset" />
          </mxGeometry>
        </mxCell>
        <mxCell id="m8fVVzXEGq7GW8oS4KQ8-95" value="" style="edgeStyle=orthogonalEdgeStyle;rounded=0;orthogonalLoop=1;jettySize=auto;html=1;" edge="1" parent="1" target="m8fVVzXEGq7GW8oS4KQ8-94">
          <mxGeometry relative="1" as="geometry">
            <mxPoint x="705" y="1255" as="sourcePoint" />
            <Array as="points">
              <mxPoint x="190" y="1255" />
            </Array>
          </mxGeometry>
        </mxCell>
        <mxCell id="m8fVVzXEGq7GW8oS4KQ8-108" style="edgeStyle=orthogonalEdgeStyle;rounded=0;orthogonalLoop=1;jettySize=auto;html=1;" edge="1" parent="1" source="m8fVVzXEGq7GW8oS4KQ8-78">
          <mxGeometry relative="1" as="geometry">
            <mxPoint x="520" y="1170" as="targetPoint" />
          </mxGeometry>
        </mxCell>
        <mxCell id="m8fVVzXEGq7GW8oS4KQ8-78" value="if (max_h &amp;gt;= 2*min_h)" style="shape=hexagon;perimeter=hexagonPerimeter2;whiteSpace=wrap;html=1;fixedSize=1;" vertex="1" parent="1">
          <mxGeometry x="785" y="1230" width="110" height="50" as="geometry" />
        </mxCell>
        <mxCell id="m8fVVzXEGq7GW8oS4KQ8-81" value="table_tipped = true" style="whiteSpace=wrap;html=1;" vertex="1" parent="1">
          <mxGeometry x="970" y="1340" width="130" height="55" as="geometry" />
        </mxCell>
        <mxCell id="m8fVVzXEGq7GW8oS4KQ8-98" style="edgeStyle=orthogonalEdgeStyle;rounded=0;orthogonalLoop=1;jettySize=auto;html=1;entryX=0;entryY=0.5;entryDx=0;entryDy=0;exitX=0;exitY=0.5;exitDx=0;exitDy=0;" edge="1" parent="1" source="m8fVVzXEGq7GW8oS4KQ8-94" target="m8fVVzXEGq7GW8oS4KQ8-27">
          <mxGeometry relative="1" as="geometry">
            <mxPoint x="136" y="690" as="targetPoint" />
            <mxPoint x="34.25" y="1340" as="sourcePoint" />
            <Array as="points">
              <mxPoint x="136" y="1340" />
              <mxPoint x="87" y="1340" />
              <mxPoint x="87" y="680" />
            </Array>
          </mxGeometry>
        </mxCell>
        <mxCell id="m8fVVzXEGq7GW8oS4KQ8-94" value="if(error_occurred) cout &amp;lt;&amp;lt; &quot;ERROR&quot;;" style="shape=hexagon;perimeter=hexagonPerimeter2;whiteSpace=wrap;html=1;fixedSize=1;" vertex="1" parent="1">
          <mxGeometry x="136" y="1297.5" width="120" height="80" as="geometry" />
        </mxCell>
        <mxCell id="m8fVVzXEGq7GW8oS4KQ8-99" style="edgeStyle=orthogonalEdgeStyle;rounded=0;orthogonalLoop=1;jettySize=auto;html=1;exitX=0;exitY=0.5;exitDx=0;exitDy=0;" edge="1" parent="1" source="m8fVVzXEGq7GW8oS4KQ8-78" target="m8fVVzXEGq7GW8oS4KQ8-100">
          <mxGeometry relative="1" as="geometry">
            <mxPoint x="489.5" y="1300" as="targetPoint" />
            <mxPoint x="780" y="1255" as="sourcePoint" />
            <Array as="points">
              <mxPoint x="420" y="1255" />
              <mxPoint x="420" y="1170" />
            </Array>
          </mxGeometry>
        </mxCell>
        <mxCell id="m8fVVzXEGq7GW8oS4KQ8-104" value="FALSE" style="edgeLabel;html=1;align=center;verticalAlign=middle;resizable=0;points=[];" vertex="1" connectable="0" parent="m8fVVzXEGq7GW8oS4KQ8-99">
          <mxGeometry x="-0.7899" y="3" relative="1" as="geometry">
            <mxPoint y="-3" as="offset" />
          </mxGeometry>
        </mxCell>
        <mxCell id="m8fVVzXEGq7GW8oS4KQ8-105" style="edgeStyle=orthogonalEdgeStyle;rounded=0;orthogonalLoop=1;jettySize=auto;html=1;entryX=0.5;entryY=1;entryDx=0;entryDy=0;" edge="1" parent="1" source="m8fVVzXEGq7GW8oS4KQ8-100" target="m8fVVzXEGq7GW8oS4KQ8-27">
          <mxGeometry relative="1" as="geometry">
            <mxPoint x="260" y="740" as="targetPoint" />
            <Array as="points">
              <mxPoint x="260" y="935" />
              <mxPoint x="261" y="935" />
              <mxPoint x="261" y="740" />
              <mxPoint x="414" y="740" />
            </Array>
          </mxGeometry>
        </mxCell>
        <mxCell id="m8fVVzXEGq7GW8oS4KQ8-100" value="else if(table_tipped) cout &lt;&lt; &quot;NO&quot;;" style="shape=hexagon;perimeter=hexagonPerimeter2;whiteSpace=wrap;html=1;fixedSize=1;" vertex="1" parent="1">
          <mxGeometry x="200" y="1130" width="120" height="80" as="geometry" />
        </mxCell>
        <mxCell id="m8fVVzXEGq7GW8oS4KQ8-110" style="edgeStyle=orthogonalEdgeStyle;rounded=0;orthogonalLoop=1;jettySize=auto;html=1;entryX=0.75;entryY=1;entryDx=0;entryDy=0;" edge="1" parent="1" source="m8fVVzXEGq7GW8oS4KQ8-109" target="m8fVVzXEGq7GW8oS4KQ8-27">
          <mxGeometry relative="1" as="geometry" />
        </mxCell>
        <mxCell id="m8fVVzXEGq7GW8oS4KQ8-109" value="else cout &amp;lt;&amp;lt; &quot;YES&quot;;" style="shape=hexagon;perimeter=hexagonPerimeter2;whiteSpace=wrap;html=1;fixedSize=1;" vertex="1" parent="1">
          <mxGeometry x="460" y="1089" width="120" height="80" as="geometry" />
        </mxCell>
      </root>
    </mxGraphModel>
  </diagram>
</mxfile>
